<?xml version="1.0" encoding="UTF-8" standalone="no"?>
<!-- Created with Inkscape (http://www.inkscape.org/) -->

<svg
   width="103.36429mm"
   height="126.80375mm"
   viewBox="0 0 103.36429 126.80375"
   version="1.1"
   id="svg1"
   xmlns="http://www.w3.org/2000/svg"
   xmlns:svg="http://www.w3.org/2000/svg">
  <defs
     id="defs1" />
  <g
     id="g182"
     transform="translate(-8.598025,-60.824913)">
    <g
       id="g181">
      <g
         id="g180"
         transform="translate(423.28853,-70.209526)"
         style="display:inline">
        <g
           id="g167"
           transform="translate(-93.133386,91.016718)">
          <path
             id="path162"
             style="opacity:0.985401;fill:#6e9fd7;fill-opacity:1;stroke:#000000;stroke-width:0.799999;stroke-linecap:round;stroke-opacity:0"
             d="m -266.39223,40.417495 c -0.32796,-0.189344 -54.65899,31.17856 -54.65899,31.557245 0,0.162961 10.47256,6.288556 21.94555,12.935133 0.004,-0.04981 0.006,-0.293003 0.0103,-0.313167 -0.011,-0.0098 -0.0774,-0.05045 -0.0777,-0.05293 0,-0.227325 32.61424,-19.057211 32.8111,-18.94355 0.005,0.0028 0.009,0.126367 0.0134,0.172597 0.53527,0.156216 15.67673,8.858276 25.14321,14.384135 5.61691,-3.300685 14.81366,-8.620493 21.72787,-12.569775 -14.73199,-8.657971 -45.90379,-26.59228 -46.89226,-26.881564 -0.008,-0.07689 -0.0148,-0.282713 -0.0227,-0.287321 z" />
          <path
             id="path163"
             style="opacity:0.985401;fill:#d0e1f1;fill-opacity:1;stroke:#000000;stroke-width:0.799999;stroke-linecap:round;stroke-opacity:0"
             d="m -240.86765,126.74763 c -0.60537,0.35343 -1.36802,0.79385 -2.0159,1.17098 -1.9845,1.1552 -4.00401,2.32976 -6.18154,3.58841 -1.54996,0.89564 -2.75421,1.58675 -4.2695,2.45825 -2.17836,1.2536 -4.06976,2.33732 -5.90507,3.38429 -1.26696,0.72246 -2.48187,1.41658 -3.45304,1.96422 -0.58693,0.33118 -1.15642,0.65266 -1.60559,0.90279 -0.23133,0.12879 -0.46401,0.25862 -0.65423,0.36328 -0.71424,0.39302 -1.23247,0.6709 -1.2542,0.65836 -0.003,-0.002 -0.005,-0.0849 -0.008,-0.1018 -0.002,0.006 -0.003,0.0554 -0.005,0.0563 0,1e-5 -5.1e-4,0 -5.1e-4,0 -0.002,0.001 -0.13304,-0.072 -0.14573,-0.0765 0.0196,13.20426 0.0897,25.2231 0.23048,25.3044 0.25392,0.14661 32.46614,-18.38931 47.14496,-27.02522 -6.82865,-3.89827 -16.05641,-9.22804 -21.87722,-12.6478 -1.1e-4,6e-5 -4e-4,-7e-5 -5.1e-4,0 z" />
          <path
             id="path165"
             style="opacity:0.985401;fill:#a0bfe5;fill-opacity:1;stroke:#000000;stroke-width:0.799999;stroke-linecap:round;stroke-opacity:0"
             d="m -320.91118,71.92462 c -0.32791,0.194766 -0.32793,62.92464 0,63.11397 0.009,0.005 0.19622,-0.0949 0.27338,-0.13022 1.88683,1.44784 54.16123,31.62226 54.48328,31.43632 0.1401,-0.0809 0.20749,-12.09671 0.2279,-25.25376 -0.043,0.0195 -0.27525,0.15008 -0.28009,0.14728 -0.003,-0.002 -0.005,-0.0849 -0.008,-0.1018 -0.002,0.006 -0.003,0.0554 -0.005,0.0563 -0.19332,0.1116 -31.57473,-18.00304 -32.70568,-18.87121 -0.0463,0.0212 -0.15877,0.0815 -0.16381,0.0786 -0.19454,-0.11232 -0.19666,-36.824594 -0.007,-37.803377 -0.0114,-0.0089 -0.0758,-0.04953 -0.077,-0.05256 -10e-6,-2.7e-5 -5.3e-4,-4.97e-4 -5.2e-4,-5.19e-4 -10e-5,-0.0058 0.2374,-0.146576 0.27595,-0.174145 -11.42668,-6.574138 -21.87385,-12.525874 -22.0144,-12.444738 z" />
        </g>
      </g>
      <g
         id="g54"
         transform="translate(-38.485381,-69.673454)">
        <g
           id="g47"
           transform="translate(113.64763,91.016718)">
          <path
             id="path43"
             style="opacity:0.985401;fill:#d0e1f1;fill-opacity:1;stroke:#000000;stroke-width:0.799999;stroke-linecap:round;stroke-opacity:0"
             d="m 40.464364,61.762161 c -0.08162,0.141365 5.907546,10.655675 12.524817,22.155754 0.01742,-0.02527 0.101966,-0.16806 0.113171,-0.182418 -0.01778,-0.03962 -0.0745,-0.146263 -0.07183,-0.150895 0.109988,-0.190505 35.275721,-0.196281 37.65765,-0.01809 0.02288,-0.0313 0.08436,-0.129706 0.0894,-0.129708 0.0056,1e-6 0.0715,0.105922 0.09922,0.144694 0.0031,0.0011 0.03966,0.002 0.04031,0.0031 5.88e-4,0.001 -0.01509,0.03036 -0.0155,0.03307 1.298262,1.890621 18.929678,32.439772 18.819528,32.630562 -0.002,0.003 -0.0828,0.005 -0.0987,0.008 0.005,0.001 0.0524,0.003 0.0532,0.004 0.001,0.002 -0.0719,0.13348 -0.0765,0.14624 13.20411,-0.0197 25.22259,-0.0902 25.30388,-0.23099 0.18351,-0.31785 -29.19042,-51.21302 -31.35054,-54.357922 7e-4,-0.0046 0.0273,-0.0536 0.0264,-0.05529 -10e-4,-0.0019 -0.063,-0.0033 -0.0682,-0.0052 -0.0459,-0.06415 -0.15553,-0.240296 -0.16484,-0.240296 -0.008,0 -0.11029,0.164012 -0.14831,0.216008 -3.966848,-0.296859 -62.549901,-0.287905 -62.733129,0.02945 z"
             transform="rotate(90,89.443716,120.96114)" />
          <path
             id="path45"
             style="opacity:0.985401;fill:#a0bfe5;fill-opacity:1;stroke:#000000;stroke-width:0.799999;stroke-linecap:round;stroke-opacity:0"
             d="m 135.09529,116.15509 c 0.18934,-0.32795 -31.17882,-54.659204 -31.5575,-54.659204 -0.01,0 -0.12215,0.180571 -0.17138,0.24991 -2.35593,-0.310467 -62.716124,-0.305666 -62.902062,0.01639 -0.08088,0.140096 5.868656,10.579792 12.429517,21.98434 0.02757,-0.03853 0.163768,-0.267848 0.16937,-0.267848 0.0032,0 0.0458,0.06915 0.05606,0.0816 -0.0013,-0.0051 -0.02388,-0.04669 -0.02303,-0.04816 0.111618,-0.193323 36.345055,-0.196182 37.759391,-0.0098 0.02956,-0.04164 0.09748,-0.149743 0.1033,-0.149743 0.224651,0 18.585234,31.797165 18.907504,32.735325 0.0145,0.003 0.0922,0.005 0.0937,0.007 0.003,0.005 -0.13271,0.24579 -0.15236,0.28905 13.18275,-0.0199 25.20628,-0.0886 25.28744,-0.22919 z"
             transform="rotate(-150,81.34828,106.85314)" />
        </g>
        <g
           id="g53"
           transform="matrix(0.60028901,0,0,0.60028901,151.23955,132.35461)"
           style="fill:#ffffff;fill-opacity:1" />
        <g
           id="g155"
           transform="matrix(0.98500287,0,0,0.98500287,115.05808,30.255906)"
           style="fill:#ffffff;fill-opacity:1" />
      </g>
      <g
         id="g114"
         transform="translate(-38.699813,-69.673454)">
        <g
           id="g107"
           transform="translate(227.83134,91.016718)">
          <rect
             style="opacity:0.985401;fill:#a0bfe5;fill-opacity:0.988235;stroke:#000000;stroke-width:0.859655;stroke-linecap:round;stroke-opacity:0"
             id="rect180"
             width="25.379187"
             height="76.658546"
             x="263.69598"
             y="171.25766"
             transform="matrix(0.86602541,-0.50000001,0,1,-189.13153,-21.343265)"
             rx="0"
             ry="0" />
        </g>
        <g
           id="g113"
           transform="matrix(0.60028901,0,0,0.60028901,265.42326,132.35461)"
           style="fill:#ffffff;fill-opacity:1">
          <path
             id="path102"
             style="opacity:0.985401;fill:#6e9fd7;fill-opacity:1;stroke:#000000;stroke-width:0.799999;stroke-linecap:round;stroke-opacity:0"
             d="m 40.409253,61.516175 c -0.378686,0 -31.7465242,54.330755 -31.5571809,54.658715 0.081478,0.14112 12.2132449,0.20964 25.4721579,0.22925 -0.02159,-0.0449 -0.140739,-0.25662 -0.147371,-0.27593 -0.01446,-0.003 -0.09224,-0.005 -0.09374,-0.007 -0.11366,-0.19686 18.716699,-32.810858 18.94402,-32.810858 0.0055,0 0.07087,0.104997 0.09794,0.142757 0.77715,-0.188208 36.378815,-0.190271 37.702493,-0.005 0.02542,-0.03521 0.08942,-0.137654 0.09476,-0.137654 0.0083,0 0.194772,0.312433 0.250653,0.395903 6.550173,-11.386306 12.486545,-21.803608 12.405765,-21.943526 -0.18761,-0.324956 -61.697372,-0.327617 -63.00659,-0.0086 -0.04501,-0.06278 -0.153689,-0.237716 -0.162904,-0.237716 z"
             transform="matrix(1.4426808,0.83293213,-0.83293213,1.4426808,86.862048,-123.93994)" />
          <path
             id="path103"
             style="opacity:0.985401;fill:#d0e1f1;fill-opacity:1;stroke:#000000;stroke-width:0.799999;stroke-linecap:round;stroke-opacity:0"
             d="m 40.464363,61.762171 c -0.08162,0.141365 5.907545,10.655674 12.524816,22.155753 0.01742,-0.02527 0.101967,-0.168059 0.113172,-0.182418 -0.01778,-0.03962 -0.07451,-0.146263 -0.07183,-0.150895 0.109987,-0.190504 35.275724,-0.196277 37.657648,-0.01809 0.02289,-0.0313 0.08437,-0.129704 0.0894,-0.129708 0.0056,3e-6 0.0715,0.105922 0.09922,0.144694 0.0031,0.0011 0.03966,0.002 0.04031,0.0031 5.82e-4,10e-4 -0.01509,0.03036 -0.0155,0.03307 1.298262,1.890621 18.929681,32.439773 18.819531,32.630563 -0.002,0.003 -0.0828,0.005 -0.0987,0.008 0.005,10e-4 0.0524,0.003 0.0532,0.004 0.001,0.002 -0.0719,0.13348 -0.0765,0.14624 13.20411,-0.0197 25.22258,-0.0902 25.30388,-0.23099 0.18351,-0.31784 -29.19042,-51.21302 -31.35054,-54.357922 7e-4,-0.0046 0.0273,-0.0536 0.0264,-0.05529 -10e-4,-0.0019 -0.063,-0.0033 -0.0682,-0.0052 -0.0459,-0.06415 -0.15554,-0.240296 -0.16485,-0.240296 -0.008,0 -0.11029,0.164013 -0.14831,0.216008 -3.966842,-0.296859 -62.549893,-0.287904 -62.733121,0.02945 z"
             transform="matrix(0,1.6658643,-1.6658643,0,287.8829,-16.359567)" />
          <path
             id="path105"
             style="opacity:0.985401;fill:#a0bfe5;fill-opacity:1;stroke:#000000;stroke-width:0.799999;stroke-linecap:round;stroke-opacity:0"
             d="m 135.0953,116.15508 c 0.18934,-0.32796 -31.17882,-54.659202 -31.55751,-54.659202 -0.01,0 -0.12214,0.180571 -0.17137,0.249909 -2.35594,-0.310466 -62.716126,-0.305666 -62.902064,0.01639 -0.08088,0.140097 5.868656,10.579794 12.429516,21.98434 0.02757,-0.03853 0.163768,-0.267847 0.169371,-0.267847 0.0032,0 0.0458,0.06915 0.05606,0.0816 -0.0013,-0.0051 -0.02389,-0.04669 -0.02303,-0.04816 0.111617,-0.193329 36.345054,-0.196176 37.75939,-0.0098 0.02956,-0.04163 0.09748,-0.149743 0.103299,-0.149743 0.224652,0 18.585238,31.797163 18.907508,32.735323 0.0144,0.003 0.0922,0.005 0.0937,0.007 0.003,0.005 -0.1327,0.24579 -0.15235,0.28905 13.18275,-0.0199 25.20627,-0.0886 25.28744,-0.22919 z"
             transform="matrix(-1.4426808,-0.83293213,0.83293213,-1.4426808,101.25035,331.05207)" />
        </g>
      </g>
      <g
         id="g126"
         transform="translate(-38.914245,-69.673454)"
         style="display:inline">
        <g
           id="g119"
           transform="translate(342.01505,91.016718)">
          <path
             id="path116"
             style="opacity:0.985401;fill:#6e9fd7;fill-opacity:1;stroke:#000000;stroke-width:0.799999;stroke-linecap:round;stroke-opacity:0"
             d="m 58.805207,93.98973 c 6.766708,11.68376 13.051065,22.43119 13.216247,22.43119 0.164242,0 6.388239,-10.64349 13.108244,-22.245155 -11.391816,-0.03557 -21.514077,-0.08522 -26.324491,-0.186035 z"
             transform="rotate(90,77.89037,77.843469)" />
          <path
             id="path117"
             style="opacity:0.985401;fill:#a0bfe5;fill-opacity:1;stroke:#000000;stroke-width:0.799999;stroke-linecap:round;stroke-opacity:0"
             d="m 135.0953,116.15508 c 0.18935,-0.32795 -31.17881,-54.659201 -31.5575,-54.659201 -0.01,0 -0.1222,0.180657 -0.17137,0.24991 -0.99283,-0.130835 -12.765912,-0.19284 -25.516247,-0.21155 5.766098,9.597043 20.404689,34.874895 31.851217,54.850631 13.23034,-0.0196 25.31251,-0.0888 25.3939,-0.22979 z"
             transform="rotate(-150,81.34828,106.85314)" />
        </g>
      </g>
      <g
         id="g24"
         transform="translate(423.28854,-70.209526)"
         style="display:inline">
        <g
           id="g21"
           transform="translate(-93.133386,91.016718)">
          <path
             id="path19"
             style="opacity:0.985401;fill:#6e9fd7;fill-opacity:1;stroke:#000000;stroke-width:0.799999;stroke-linecap:round;stroke-opacity:0"
             d="m 40.40918,61.516435 c -0.378687,0 -31.7465243,54.330765 -31.5571812,54.658715 0.081479,0.14113 12.2137282,0.2098 25.4728642,0.22944 -0.02167,-0.045 -0.140937,-0.25696 -0.147629,-0.27638 -0.01446,-0.003 -0.09224,-0.005 -0.09374,-0.007 -0.113661,-0.19687 18.715993,-32.811055 18.943315,-32.811055 0.0055,0 0.07087,0.104999 0.09793,0.142758 0.541663,-0.132347 18.005543,-0.166849 28.96669,-0.114558 3.214041,-5.66693 8.518754,-14.872393 12.532002,-21.749681 -17.087271,-0.132023 -53.049962,-0.07771 -54.050643,0.165997 -0.04502,-0.06279 -0.154136,-0.237458 -0.163352,-0.237458 z"
             transform="rotate(30,106.56146,150.91547)" />
          <path
             id="path20"
             style="opacity:0.985401;fill:#d0e1f1;fill-opacity:1;stroke:#000000;stroke-width:0.799999;stroke-linecap:round;stroke-opacity:0"
             d="m 95.230202,90.908893 c 0.353434,0.605367 0.79385,1.368017 1.170988,2.015898 1.155193,1.984495 2.329761,4.004004 3.588411,6.181535 0.895639,1.549964 1.586749,2.754214 2.458249,4.269504 1.2536,2.17836 2.33732,4.06976 3.38429,5.90507 0.72246,1.26695 1.41658,2.48186 1.96422,3.45302 0.33118,0.58693 0.65266,1.15641 0.90279,1.60558 0.12879,0.23133 0.25862,0.46401 0.36328,0.65423 0.39302,0.71423 0.6709,1.23246 0.65836,1.25419 -0.002,0.003 -0.0849,0.005 -0.1018,0.008 0.006,0.002 0.0554,0.003 0.0563,0.005 10e-6,0 0,5.1e-4 0,5.1e-4 10e-4,0.002 -0.072,0.13304 -0.0765,0.14573 13.20426,-0.0196 25.2231,-0.0897 25.3044,-0.23048 0.14661,-0.25392 -18.38931,-32.466098 -27.02522,-47.144921 -3.89827,6.828653 -9.228044,16.056411 -12.647808,21.877217 6.8e-5,1.17e-4 -6.8e-5,4.01e-4 0,5.17e-4 z"
             transform="rotate(90,89.443716,120.96114)" />
          <path
             id="path21"
             style="opacity:0.985401;fill:#a0bfe5;fill-opacity:1;stroke:#000000;stroke-width:0.799999;stroke-linecap:round;stroke-opacity:0"
             d="m 135.0951,116.15438 c 0.1866,-0.33263 -31.17832,-54.658305 -31.55698,-54.658305 -0.01,0 -0.1225,0.180269 -0.17164,0.249462 -2.35796,-0.310447 -62.71587,-0.305218 -62.901802,0.01684 -0.08089,0.140096 5.868663,10.579804 12.429516,21.98434 0.0275,-0.03843 0.163329,-0.267589 0.168923,-0.267589 0.0033,0 0.04681,0.07102 0.05761,0.08429 -0.0014,-0.0056 -0.02534,-0.04931 -0.02414,-0.05111 0.111617,-0.193305 36.345878,-0.196188 37.759391,-0.0098 0.02946,-0.04148 0.09677,-0.149932 0.102593,-0.149932 0.224636,0 18.582609,31.792704 18.907509,32.735324 0.0143,0.002 0.0904,0.005 0.093,0.007 2e-5,2e-5 7e-4,1.7e-4 7.1e-4,1.9e-4 0.003,0.005 -0.13231,0.24564 -0.15191,0.28879 13.1827,-0.0199 25.20603,-0.0891 25.28718,-0.22964 z"
             transform="rotate(-150,81.34828,106.85314)" />
        </g>
        <g
           id="g22"
           transform="matrix(0.60028901,0,0,0.60028901,-55.541459,132.35461)"
           style="fill:#ffffff;fill-opacity:1" />
        <g
           id="g23"
           transform="matrix(0.64395845,0,0,0.64395845,-4.2987161,127.83836)"
           style="fill:#ffffff;fill-opacity:1" />
      </g>
      <g
         id="g150"
         transform="translate(-38.807029,-70.7456)">
        <path
           id="path138"
           style="display:inline;opacity:0.985401;fill:#6e9fd7;stroke:#000000;stroke-width:0.799999;stroke-linecap:round;stroke-opacity:0"
           d="m 567.50911,132.50617 c -0.32795,-0.18934 -54.6592,31.17857 -54.6592,31.55725 0,0.16169 10.3359,6.20766 21.6979,12.79094 10e-4,-0.0176 0.002,-0.0421 0.003,-0.0594 -0.006,-0.007 -0.0117,-0.0114 -0.0201,-0.0243 -0.0137,-0.0202 -0.0418,-0.13774 -0.0419,-0.13848 0,-8.9e-4 0.0281,-0.11778 0.0418,-0.13798 0.0138,-0.0202 0.024,-0.0305 0.0321,-0.0387 0.0162,-0.0165 0.0277,-0.0255 0.0398,-0.0351 0.0242,-0.0193 0.0498,-0.0381 0.0832,-0.061 0.0667,-0.0458 0.16029,-0.10586 0.28112,-0.1819 0.24163,-0.15208 0.59241,-0.36544 1.03921,-0.63408 0.89361,-0.53726 2.16931,-1.29258 3.70004,-2.19056 3.06144,-1.79595 7.14502,-4.16673 11.23445,-6.52776 4.08943,-2.36104 8.18457,-4.71141 11.27063,-6.46472 1.54303,-0.87666 2.83393,-1.60418 3.74602,-2.10944 0.45605,-0.25262 0.81666,-0.44968 1.06919,-0.58291 0.12626,-0.0666 0.22469,-0.11752 0.29766,-0.15244 0.0365,-0.0175 0.0663,-0.0305 0.0951,-0.0419 0.0144,-0.006 0.0277,-0.0108 0.0501,-0.0165 0.0112,-0.003 0.0237,-0.006 0.0481,-0.008 h 5.1e-4 c 0.0244,-0.002 0.14133,0.0311 0.14212,0.0315 7.6e-4,4.5e-4 0.0876,0.086 0.0982,0.108 0.0106,0.022 0.0145,0.0349 0.0176,0.046 0.006,0.0223 0.009,0.0359 0.0109,0.0512 6.7e-4,0.004 9.8e-4,0.0105 0.002,0.015 0.064,0.0317 0.1269,0.063 0.22014,0.11213 0.25253,0.13323 0.61417,0.32977 1.07022,0.5824 0.91209,0.50526 2.20196,1.23277 3.74499,2.10943 3.08606,1.75331 7.18068,4.10421 11.27011,6.46524 h 5.2e-4 c 4.08943,2.36103 8.17249,4.73182 11.23394,6.52776 1.53072,0.89798 2.80694,1.65226 3.70055,2.18953 0.44683,0.2686 0.79706,0.4825 1.0387,0.63459 0.069,0.0434 0.10904,0.0709 0.1602,0.10438 0.003,-0.001 0.007,-0.004 0.0103,-0.005 0.0145,-0.006 0.0282,-0.0108 0.0506,-0.0165 0.0112,-0.003 0.0237,-0.006 0.0481,-0.008 0.0244,-0.002 0.14107,0.0312 0.14159,0.0315 7.7e-4,4.5e-4 0.0881,0.086 0.0987,0.108 0.0106,0.022 0.0145,0.0348 0.0176,0.046 0.006,0.0223 0.008,0.0359 0.0103,0.0512 0.005,0.0306 0.008,0.063 0.0109,0.10335 0.004,0.0537 0.008,0.14167 0.0119,0.22273 11.25323,-6.52166 21.46483,-12.49526 21.46483,-12.65556 0,-0.37523 -53.26768,-31.1324 -54.561,-31.51074 -0.008,-0.0767 -0.0143,-0.28149 -0.0222,-0.28681 z" />
        <path
           id="path139"
           style="display:inline;opacity:0.985401;fill:#d0e1f1;stroke:#000000;stroke-width:0.799999;stroke-linecap:round;stroke-opacity:0"
           d="m 622.18019,164.07065 c -0.13987,-0.0807 -10.46961,5.80262 -21.81882,12.33155 0.0415,0.007 0.11635,0.0256 0.11679,0.0258 7.6e-4,4.4e-4 0.0881,0.086 0.0987,0.108 0.0106,0.022 0.0144,0.0348 0.0176,0.046 0.006,0.0223 0.008,0.0359 0.0103,0.0512 0.005,0.0306 0.008,0.063 0.0109,0.10336 0.006,0.0807 0.0121,0.19169 0.0176,0.33434 0.0109,0.28531 0.0213,0.69676 0.0305,1.21802 0.0185,1.04252 0.0332,2.52329 0.0455,4.29792 0.0246,3.54927 0.0367,8.27094 0.0367,12.99301 -10e-6,4.72207 -0.0121,9.44373 -0.0367,12.99301 -0.0123,1.77463 -0.027,3.25695 -0.0455,4.29947 -0.009,0.52126 -0.0196,0.93168 -0.0305,1.21699 -10e-4,0.0342 -0.003,0.0495 -0.004,0.0801 4.4e-4,4.3e-4 10e-4,0.001 0.002,0.002 0.0122,0.01 0.0236,0.0186 0.0398,0.0351 0.008,0.008 0.0183,0.0186 0.032,0.0388 0.0138,0.0202 0.0418,0.13775 0.0419,0.1385 2e-5,9.1e-4 -0.0281,0.11828 -0.0419,0.13849 -0.0138,0.0202 -0.0238,0.03 -0.032,0.0382 -0.0162,0.0166 -0.0279,0.0259 -0.0398,0.0357 -0.0242,0.0193 -0.0498,0.0376 -0.0832,0.0605 -8.2e-4,2.2e-4 -0.002,0.001 -0.002,0.002 -0.0292,0.0321 -0.0677,0.0731 -0.0682,0.0734 -3.9e-4,1.9e-4 -0.038,0.008 -0.0698,0.016 -0.0469,0.0303 -0.0805,0.0528 -0.14108,0.0909 -0.24164,0.15209 -0.59241,0.36595 -1.03921,0.63459 -0.89362,0.53727 -2.16932,1.29207 -3.70004,2.19004 -3.06144,1.79595 -7.14502,4.16674 -11.23445,6.52777 -4.08943,2.36104 -8.18458,4.71192 -11.27064,6.46524 -1.54303,0.87665 -2.83392,1.60367 -3.74602,2.10892 -0.45605,0.25263 -0.81666,0.44968 -1.06919,0.58291 -0.12626,0.0666 -0.22468,0.11753 -0.29765,0.15244 -0.0365,0.0175 -0.0663,0.0306 -0.0951,0.0419 -0.0144,0.006 -0.0277,0.0108 -0.0501,0.0165 -0.0112,0.003 -0.0237,0.006 -0.0481,0.008 -0.0244,0.002 -0.14159,-0.0312 -0.14211,-0.0315 -2.9e-4,-1.6e-4 -0.0199,-0.0221 -0.0367,-0.0403 0.0205,13.0734 0.0897,24.93332 0.22944,25.01397 0.31785,0.18351 51.21302,-29.19042 54.35793,-31.35054 0.005,7e-4 0.0536,0.0273 0.0553,0.0264 0.002,-0.001 0.003,-0.063 0.005,-0.0682 0.0642,-0.0459 0.24029,-0.15553 0.24029,-0.16484 0,-0.008 -0.16401,-0.11029 -0.21601,-0.14832 0.29686,-3.96684 0.28791,-62.54989 -0.0295,-62.73312 z" />
        <path
           id="path141"
           style="opacity:0.985401;fill:#a0bfe5;stroke:#000000;stroke-width:0.799999;stroke-linecap:round;stroke-opacity:0"
           d="m 512.99047,164.01277 c -0.32796,0.18936 -0.32795,62.92567 0,63.11502 0.009,0.005 0.19607,-0.0953 0.27337,-0.13075 1.88508,1.44685 54.16093,31.62278 54.48298,31.43684 0.13901,-0.0802 0.20621,-11.93781 0.22738,-24.96643 -0.0183,0.009 -0.0488,0.0255 -0.0646,0.0331 -0.0365,0.0175 -0.0663,0.0305 -0.0951,0.0419 -0.0144,0.006 -0.0277,0.0108 -0.0501,0.0165 -0.0112,0.003 -0.0237,0.006 -0.0481,0.008 -0.0244,0.002 -0.14159,-0.0312 -0.14212,-0.0315 -4e-4,-2.3e-4 -0.0271,-0.0305 -0.0512,-0.0558 -0.0178,-0.008 -0.0343,-0.0149 -0.0558,-0.0253 -0.073,-0.035 -0.17193,-0.0853 -0.29817,-0.15193 -0.25252,-0.13325 -0.61417,-0.32976 -1.07022,-0.58239 -0.9121,-0.50525 -2.20248,-1.23329 -3.7455,-2.10996 -3.08606,-1.75332 -7.18068,-4.10369 -11.27011,-6.46472 -4.08944,-2.36104 -8.17301,-4.73234 -11.23446,-6.52828 -1.53072,-0.89798 -2.80642,-1.65174 -3.70003,-2.18902 -0.44683,-0.2686 -0.79705,-0.48304 -1.0387,-0.63511 -0.066,-0.0416 -0.10368,-0.067 -0.15347,-0.0992 -0.007,0.003 -0.0166,0.007 -0.0238,0.0103 -0.0144,0.006 -0.0277,0.0108 -0.0501,0.0165 -0.0112,0.003 -0.0237,0.006 -0.0481,0.008 -0.0244,0.002 -0.14133,-0.0311 -0.14211,-0.0315 -7.7e-4,-4.4e-4 -0.0876,-0.086 -0.0982,-0.108 -0.0106,-0.0221 -0.0145,-0.0343 -0.0176,-0.0455 -0.006,-0.0223 -0.009,-0.0363 -0.0109,-0.0517 -0.005,-0.0306 -0.007,-0.063 -0.0103,-0.10335 -0.006,-0.0807 -0.0121,-0.19169 -0.0176,-0.33435 -0.0109,-0.2853 -0.0212,-0.69675 -0.0305,-1.21801 -0.0185,-1.04253 -0.0337,-2.5233 -0.046,-4.29793 -0.0246,-3.54926 -0.0362,-8.27094 -0.0362,-12.99301 10e-6,-4.72207 0.0116,-9.44373 0.0362,-12.993 0.0123,-1.77463 0.0275,-3.25695 0.046,-4.29947 0.009,-0.52127 0.0196,-0.93169 0.0305,-1.21699 0.004,-0.10294 0.009,-0.17088 0.0129,-0.24132 -0.006,-0.007 -0.0117,-0.0114 -0.0201,-0.0243 -0.0138,-0.0202 -0.0418,-0.13774 -0.0419,-0.13849 0,-8.8e-4 0.0281,-0.11775 0.0419,-0.13795 0.0139,-0.0201 0.0235,-0.0308 0.0317,-0.039 0.0164,-0.0164 0.0276,-0.0255 0.0398,-0.0351 0.0242,-0.0193 0.0498,-0.0381 0.0832,-0.0609 0.0168,-0.011 0.0496,-0.0314 0.0692,-0.0445 -11.31509,-6.50887 -21.62509,-12.3826 -21.76456,-12.30209 z" />
      </g>
    </g>
  </g>
</svg>
